<svg id="Layer_1" data-name="Layer 1" xmlns="http://www.w3.org/2000/svg" viewBox="0 0 536.21 514"><defs><style>.cls-1{fill:#009688;}.cls-2{fill:#fff;}</style></defs><title>logoapp</title><ellipse class="cls-1" cx="268.1" cy="257" rx="268.1" ry="257"/><path class="cls-2" d="M791.76,384.4c-1.4-26.35-3.08-58-2.8-81.57h-.84c-6.45,22.14-14.3,45.69-23.83,71.76l-33.36,91.66h-18.5l-30.55-90c-9-26.63-16.54-51-21.86-73.44h-.56c-.56,23.55-2,55.22-3.64,83.53l-5,81H627.5l13.17-188.93h31.11L704,369.82c7.85,23.27,14.3,44,19.06,63.63h.84c4.77-19.06,11.49-39.81,19.9-63.63l33.64-91.38h31.11l6.5,104.38" transform="translate(-493 -175)"/><path class="cls-2" d="M890.36,539c-8.51,4.25-25.52,8.51-47.32,8.51-50.51,0-88.53-31.9-88.53-90.65,0-56.09,38-94.11,93.58-94.11,22.33,0,36.42,4.79,42.53,8L885,389.61c-8.77-4.25-21.27-7.44-36.15-7.44-42,0-69.92,26.85-69.92,73.9,0,43.86,25.25,72,68.85,72,14.09,0,28.44-2.92,37.75-7.44Z" transform="translate(-493 -175)"/><rect class="cls-2" x="808.14" y="539.51" width="22.38" height="49.61" transform="translate(-529.83 -117.39) rotate(-3.94)"/></svg>